<svg id="target" xmlns="http://www.w3.org/2000/svg" viewBox="0 0 40 40">
  <defs>
    <style>
      .cls-1 {
        fill: #999;
      }

      .cls-2 {
        fill: #666;
      }

      svg {
        opacity: 0.2;
      }
    </style>
  </defs>
  <g id="target-2" data-name="target">
    <g id="logo-shadow-light">
      <path id="bottomleft" class="cls-1" d="M22,27.3l-1.1,6a9.7,9.7,0,0,0,11.3-7.9l-6-1A3.5,3.5,0,0,1,22,27.3Z" />
      <g id="bottomright">
        <path class="cls-1" d="M24.4,13.8A3.5,3.5,0,0,1,27.3,18l6,1.1A9.7,9.7,0,0,0,25.4,7.8Z" />
      </g>
      <g id="topright">
        <path class="cls-1" d="M7.8,14.6l6,1A3.5,3.5,0,0,1,18,12.7l1.1-6A9.7,9.7,0,0,0,7.8,14.6Z" />
      </g>
      <path id="topleft" class="cls-1" d="M12.7,22l-6-1.1a9.7,9.7,0,0,0,7.9,11.3l1-6A3.5,3.5,0,0,1,12.7,22Z" />
      <g id="inner-circle">
        <circle class="cls-1" cx="20" cy="20" r="3.6" />
      </g>
    </g>
    <g id="logo-shadow">
      <path id="bottomleft-2" data-name="bottomleft" class="cls-2"
        d="M20.8,28.4l-2.3,6.4a10.8,10.8,0,0,0,13.8-6.5L26,26A4,4,0,0,1,20.8,28.4Z" />
      <g id="bottomright-2" data-name="bottomright">
        <path class="cls-2" d="M26,14a4,4,0,0,1,2.4,5.2l6.4,2.3A10.8,10.8,0,0,0,28.3,7.7Z" />
      </g>
      <g id="topright-2" data-name="topright">
        <path class="cls-2" d="M7.7,11.7,14,14a4,4,0,0,1,5.2-2.4l2.3-6.4A10.8,10.8,0,0,0,7.7,11.7Z" />
      </g>
      <path id="topleft-2" data-name="topleft" class="cls-2"
        d="M11.6,20.8,5.2,18.5a10.8,10.8,0,0,0,6.5,13.8L14,26A4,4,0,0,1,11.6,20.8Z" />
      <g id="inner-circle-2" data-name="inner-circle">
        <circle class="cls-2" cx="20" cy="20" r="4.1" />
      </g>
    </g>
    <g id="logo">
      <path id="bottomleft-3" data-name="bottomleft"
        d="M19.2,29.4l-3.7,6.5a12.1,12.1,0,0,0,16.4-4.4l-6.5-3.8A4.6,4.6,0,0,1,19.2,29.4Z" />
      <g id="bottomright-3" data-name="bottomright">
        <path d="M27.7,14.6a4.6,4.6,0,0,1,1.7,6.2l6.5,3.7A12.1,12.1,0,0,0,31.5,8.1Z" />
      </g>
      <g id="topright-3" data-name="topright">
        <path d="M8.1,8.5l6.5,3.8a4.6,4.6,0,0,1,6.2-1.7l3.7-6.5A12.1,12.1,0,0,0,8.1,8.5Z" />
      </g>
      <path id="topleft-3" data-name="topleft"
        d="M10.6,19.2,4.1,15.5A12.1,12.1,0,0,0,8.5,31.9l3.8-6.5A4.6,4.6,0,0,1,10.6,19.2Z" />
      <g id="inner-circle-3" data-name="inner-circle">
        <circle cx="20" cy="20" r="4.5" />
      </g>
    </g>
  </g>
</svg>